<?xml version="1.0" encoding="utf-8"?>
<!-- Generator: Adobe Illustrator 21.0.2, SVG Export Plug-In . SVG Version: 6.00 Build 0)  -->
<svg version="1.1" id="Layer_1" xmlns="http://www.w3.org/2000/svg" xmlns:xlink="http://www.w3.org/1999/xlink" x="0px" y="0px"
	 width="92.6px" height="76.3" viewBox="0 0 92.6 76.3" style="enable-background:new 0 0 92.6 76.3;" xml:space="preserve">
<style type="text/css">
	.st0{fill-rule:evenodd;clip-rule:evenodd;}
</style>
    <g fill="#93c42e">
        <path class="st0" d="M37.1,0.5c1.8,4.4,1,6.5-2.1,8.6c-5.3,3.7-10.5,7.7-15,12.3c-5.2,5.2-7,12-5.4,19.3c1,4.7,3.4,5.7,8.1,4.8
            c3.8-0.7,7.9-1.6,11.6-0.9c5.7,1.1,9.2,5.4,10.3,11c1.1,6-0.2,11.5-5.5,15.6C25.8,81.5,5.6,72.9,1.8,55C-2.1,37,5,22.6,18.7,11.5
            C24.1,7.1,30.8,4.2,37.1,0.5z"/>
        <path class="st0" d="M84.6,0.6c1.4,3.6,0.2,5.6-2.7,7.6C76.6,12,71.4,16,66.9,20.6c-5.1,5.3-6.9,12.1-5.2,19.4
            c0.9,4.2,3.6,5.7,7.8,4.6c3.2-0.8,6.6-1.9,9.7-1.5c6.3,0.8,10.5,4.8,12.3,10.9c1.8,6.2-0.5,12.7-5.6,16.4
            c-13.3,9.9-32.9,1.4-37.2-16.2c-2.3-9.5-0.8-18.5,3.4-27.1C58.3,14.4,71.1,4,84.6,0.6z"/>
    </g>
</svg>
